<?xml version="1.0" encoding="UTF-8" standalone="no"?>
<svg width="26px" height="29px" viewBox="0 0 26 29" version="1.1" xmlns="http://www.w3.org/2000/svg" xmlns:xlink="http://www.w3.org/1999/xlink" xmlns:sketch="http://www.bohemiancoding.com/sketch/ns">
    <!-- Generator: Sketch 3.5.1 (25234) - http://www.bohemiancoding.com/sketch -->
    <title>blog-icon</title>
    <desc>Created with Sketch.</desc>
    <defs></defs>
    <g id="Page-1" stroke="none" stroke-width="1" fill="none" fill-rule="evenodd" sketch:type="MSPage">
        <g id="Business-Card---Vertical-v1" sketch:type="MSArtboardGroup" transform="translate(-122.000000, -21.000000)">
            <g id="blog-icon" sketch:type="MSLayerGroup" transform="translate(122.000000, 22.000000)">
                <path d="M0,3.63706905 C0,3.11263654 0.416513514,2.6875 0.940923523,2.6875 L12.5185185,2.6875 L23.1111111,2.6875 L25.0540697,2.6875 C25.5764926,2.6875 26,3.11701072 26,3.63706905 L26,21.425431 C26,21.9498635 25.5781323,22.375 25.0459667,22.375 L21.0519525,22.375 L23.1111111,28 L15.4864168,22.375 L0.945432559,22.375 C0.423284574,22.375 0,21.9454893 0,21.425431 L0,3.63706905 Z" id="Rectangle-149" fill="#222222" sketch:type="MSShapeGroup"></path>
                <path d="M3,18 L4.89473684,13.2631579 L17.4819385,0.675956199 C17.8552588,0.302635899 18.4620498,0.304155049 18.831434,0.673539275 L20.3264607,2.16856599 C20.6984462,2.54055146 20.6980605,3.14404475 20.3240438,3.51806146 L7.73684211,16.1052632 L3,18 Z" id="Path-946" stroke="#222222" stroke-width="0.95" fill="#FFFFFF" sketch:type="MSShapeGroup"></path>
            </g>
        </g>
    </g>
</svg>