<?xml version="1.0" encoding="UTF-8" standalone="no"?>
<svg width="28px" height="28px" viewBox="0 0 28 28" version="1.1" xmlns="http://www.w3.org/2000/svg" xmlns:xlink="http://www.w3.org/1999/xlink" xmlns:sketch="http://www.bohemiancoding.com/sketch/ns">
    <!-- Generator: Sketch 3.5.1 (25234) - http://www.bohemiancoding.com/sketch -->
    <title>github10</title>
    <desc>Created with Sketch.</desc>
    <defs></defs>
    <g id="Page-1" stroke="none" stroke-width="1" fill="none" fill-rule="evenodd" sketch:type="MSPage">
        <g id="Business-Card---Vertical-v1" sketch:type="MSArtboardGroup" transform="translate(-21.000000, -261.000000)" fill="#222222">
            <g id="contactInfo" sketch:type="MSLayerGroup" transform="translate(21.000000, 204.000000)">
                <g id="contactIcons" sketch:type="MSShapeGroup">
                    <g id="github10" transform="translate(0.000000, 57.000000)">
                        <path d="M26.09798,6.98951431 C24.8472121,4.84647065 23.1506252,3.14982 21.0077729,1.89917963 C18.8646017,0.648475468 16.5248976,0.0232828591 13.9870022,0.0232828591 C11.4494257,0.0232828591 9.10895616,0.648666834 6.96623145,1.89917963 C4.82318779,3.14975621 3.12666472,4.84647065 1.87589677,6.98951431 C0.625320186,9.13249418 0,11.4726448 0,14.0099023 C0,17.0577243 0.889213852,19.7984038 2.66808808,22.2326427 C4.44677094,24.6670729 6.74456587,26.3516037 9.56128152,27.2864265 C9.8891552,27.3472809 10.131871,27.3044787 10.2896842,27.1591043 C10.4475611,27.0135386 10.5264039,26.8312306 10.5264039,26.6129459 C10.5264039,26.5765225 10.5232782,26.2488402 10.5172183,25.6295162 C10.510967,25.0101921 10.5080327,24.4699022 10.5080327,24.0089016 L10.0891326,24.0813655 C9.82204954,24.1302914 9.48511786,24.1510227 9.07833761,24.1451542 C8.67174872,24.139477 8.24965919,24.0968661 7.81264311,24.0176406 C7.37543567,23.9391168 6.968783,23.7570002 6.59236614,23.4716735 C6.21614065,23.1863469 5.94905755,22.8128643 5.79118063,22.3517999 L5.60906402,21.9327084 C5.48767421,21.6536969 5.2965634,21.3437478 5.03547644,21.0040094 C4.77438947,20.6639521 4.51036823,20.4334199 4.24328513,20.3120301 L4.11577161,20.2207485 C4.03080512,20.1600855 3.95196234,20.0869199 3.87905191,20.0020172 C3.80620526,19.9171145 3.75166596,19.832148 3.71524264,19.747054 C3.67875553,19.6618961 3.70899135,19.5920475 3.80626905,19.5372531 C3.90354675,19.4824586 4.07934828,19.4558588 4.33443912,19.4558588 L4.69854476,19.5102705 C4.94138817,19.5589412 5.24176895,19.7043156 5.60006982,19.9472866 C5.95817933,20.1900662 6.25256398,20.5056924 6.48328754,20.8940378 C6.76268185,21.391972 7.09929458,21.7713869 7.49408257,22.0324739 C7.88855161,22.2935609 8.28627388,22.4238811 8.68686663,22.4238811 C9.08745939,22.4238811 9.43344905,22.3935177 9.72496321,22.3331098 C10.0161584,22.272383 10.2893652,22.1811015 10.5444561,22.0597754 C10.653726,21.2459598 10.9512363,20.6207672 11.4367318,20.1837511 C10.7447524,20.111032 10.1226217,20.0015069 9.57002056,19.8558774 C9.01773839,19.7100565 8.44702129,19.4734006 7.858252,19.1452718 C7.26916377,18.8175895 6.78047889,18.4106816 6.39206976,17.92525 C6.00359685,17.4395632 5.68478116,16.8019318 5.43606919,16.0129299 C5.18722965,15.2236091 5.06277798,14.3130898 5.06277798,13.2811169 C5.06277798,11.8117453 5.54246867,10.5613601 6.50165867,9.52925961 C6.05233139,8.42456768 6.09475084,7.18617473 6.62904462,5.81420834 C6.98115799,5.70481079 7.50333193,5.78690679 8.19531126,6.05998603 C8.88741816,6.33319284 9.39415524,6.56723341 9.71603279,6.7612785 C10.0379103,6.9552598 10.2958079,7.11964316 10.4901081,7.25296145 C11.6194863,6.93739898 12.7849688,6.77958584 13.9868746,6.77958584 C15.1887805,6.77958584 16.3545181,6.93739898 17.4839601,7.25296145 L18.1760032,6.81607295 C18.6492512,6.5245588 19.2081036,6.25741191 19.8512208,6.0145685 C20.4947208,5.77185267 20.9867865,5.70500216 21.3269076,5.8143997 C21.8730661,7.18642989 21.9217368,8.42475905 21.4722819,9.52945098 C22.4314082,10.5615514 22.9112902,11.8122556 22.9112902,13.2813083 C22.9112902,14.3132812 22.786392,15.2266709 22.5379352,16.0220517 C22.2891595,16.81756 21.9676008,17.4545535 21.5731318,17.9343718 C21.1782162,18.4141262 20.6864057,18.8178446 20.0976364,19.1454632 C19.5087396,19.4733368 18.9378311,19.7099928 18.3855489,19.8558136 C17.8330116,20.0016345 17.2108808,20.1112234 16.5189015,20.18407 C17.1500265,20.7302285 17.4656527,21.5923322 17.4656527,22.7699983 L17.4656527,26.6124356 C17.4656527,26.8307203 17.5415612,27.0129645 17.6935058,27.158594 C17.845259,27.3039684 18.084913,27.3467705 18.4127867,27.2858524 C21.229885,26.3511572 23.52768,24.6665626 25.306299,22.2321324 C27.0847268,19.7978935 27.9742596,17.057214 27.9742596,14.009392 C27.9736217,11.4724534 27.3479825,9.13249418 26.09798,6.98951431 L26.09798,6.98951431 Z" id="Shape"></path>
                    </g>
                </g>
            </g>
        </g>
    </g>
</svg>