<?xml version="1.0" encoding="UTF-8" standalone="no"?>
<svg width="28px" height="18px" viewBox="0 0 28 18" version="1.1" xmlns="http://www.w3.org/2000/svg" xmlns:xlink="http://www.w3.org/1999/xlink" xmlns:sketch="http://www.bohemiancoding.com/sketch/ns">
    <!-- Generator: Sketch 3.5.1 (25234) - http://www.bohemiancoding.com/sketch -->
    <title>meetup</title>
    <desc>Created with Sketch.</desc>
    <defs></defs>
    <g id="Page-1" stroke="none" stroke-width="1" fill="none" fill-rule="evenodd" sketch:type="MSPage">
        <g id="Business-Card---Vertical-v1" sketch:type="MSArtboardGroup" transform="translate(-21.000000, -300.000000)" fill="#222222">
            <g id="contactInfo" sketch:type="MSLayerGroup" transform="translate(21.000000, 204.000000)">
                <g id="contactIcons" sketch:type="MSShapeGroup">
                    <g id="meetup" transform="translate(0.000000, 96.000000)">
                        <path d="M12.7919985,9.02553456 C12.6982565,9.02553456 12.6040589,9.0177348 12.5343383,8.91753784 C12.5554303,8.53801602 12.6765136,8.25435796 12.7940816,7.98076626 C12.8466813,7.85757 12.8994762,7.73484039 12.9425063,7.60257774 L12.9950409,7.44684913 L13.0383965,7.604911 C13.1400154,7.97156654 13.1076614,8.65501247 12.9502531,9.02280131 L12.7919985,9.02553456 L12.7919985,9.02553456 Z M24.4885182,6.62994058 L24.4417124,6.67473922 C23.6417161,7.44711579 23.3515718,8.75820934 23.1425403,9.92557392 C23.810061,9.74084619 24.3773299,9.10953201 24.6221656,8.41508642 C24.7713064,7.99103262 24.8742923,7.34685216 24.520091,6.68753883 L24.4885182,6.62994058 L24.4885182,6.62994058 Z M9.87721015,8.73401007 C9.91913363,8.75080956 9.96685088,8.77067563 10.0330561,8.77067563 L10.0663215,8.76360918 L10.1473041,8.72287708 C10.2100591,8.40875328 10.1904645,8.00183229 10.0945743,7.60651095 C9.84843659,7.8926356 9.6982542,8.22642548 9.64142315,8.65374584 L9.63380662,8.71161075 L9.75899116,8.7047443 C9.80560173,8.70467763 9.8389322,8.71714392 9.87721015,8.73401007 L9.87721015,8.73401007 Z M28,16.1817174 C28,16.7473669 27.552187,17.205953 26.9998907,17.205953 L1.00017437,17.205953 C0.44768284,17.2060197 0,16.7474336 0,16.1817174 L0,1.02604394 C0,0.46026111 0.44768284,0.00180835381 1.00017437,0.00180835381 L26.9998907,0.00180835381 C27.552187,0.00180835381 28,0.46026111 28,1.02604394 L28,16.1817174 L28,16.1817174 Z M8.40930259,10.6125531 C8.13191759,9.82911018 7.95205026,8.94180377 7.77927866,8.07243015 C7.55566509,6.95579736 7.32541146,5.82189843 6.93436437,4.93685862 C6.88807929,4.94119182 6.8420546,4.98525715 6.79778758,4.98525715 C6.65951822,4.98525715 6.53921607,5.01865614 6.41910922,4.9989234 C6.30505653,4.97852402 6.19048305,5.09925369 6.05546863,5.09925369 L6.01686518,5.09925369 C5.98177705,5.09925369 5.95000895,4.95879129 5.93484099,4.94852493 C5.31126182,5.81223206 5.09689224,6.97833001 4.81508055,8.16062747 C4.65923458,7.88063597 4.51640833,7.59331135 4.37481894,7.29925361 C4.12464515,6.78246929 3.86607365,6.25168539 3.573065,5.82636496 C3.49104081,5.81923185 3.41096957,5.8185652 3.33441366,5.8185652 C2.99889565,5.8185652 2.69429946,5.88049665 2.40812616,5.96589406 L2.39334879,6.75940332 C2.36190618,8.12216197 2.33515067,9.2988596 2.67060358,10.4095592 C2.73290291,10.4200922 2.79624381,10.4253588 2.85912903,10.4253588 C3.26104758,10.4253588 3.61668104,10.2243649 3.77102974,10.143834 C3.795637,9.79531121 3.75325783,9.52338612 3.7096418,9.23466155 C3.68640161,9.08653271 3.66270573,8.93753723 3.73926164,8.74374311 C3.97231451,9.05360038 4.1772448,9.3933234 4.3813939,9.73277977 C4.51146084,9.94783991 4.64146267,10.1619001 4.74093328,10.3466278 C4.8082452,10.3537609 4.8717163,10.3565608 4.93232307,10.3565608 C5.08940591,10.3565608 5.22819605,10.3366281 5.3665956,10.317362 C5.51059363,10.2974293 5.65309439,10.2788299 5.8161012,10.2788299 L5.90860626,10.3133622 C6.0932909,9.89330823 6.10338117,9.27579364 6.11295066,8.67774511 C6.12160877,8.1288951 6.13130846,7.56251229 6.36937391,7.14045842 C6.62911719,8.3662879 6.9831232,9.55731843 7.44942423,10.7794147 C7.61347261,10.7564154 7.79516271,10.6988171 7.96318211,10.6456187 C8.08817136,10.6057533 8.20137776,10.5681544 8.29134398,10.5681544 C8.33710828,10.5683544 8.3769486,10.5889538 8.40930259,10.6125531 L8.40930259,10.6125531 Z M11.629924,10.8689453 C11.5404134,10.702817 11.411323,10.6253527 11.2273544,10.6253527 C11.0868717,10.6253527 10.926599,10.6660848 10.7722503,10.7096835 C10.6142561,10.7532155 10.4521607,10.7948809 10.3058842,10.7948809 C10.265458,10.7948809 10.227831,10.7846812 10.1904645,10.7768148 C10.0146983,10.7425491 9.87252306,10.6299525 9.76921163,10.4731573 C9.58250895,10.1887659 9.53680975,9.72271341 9.70417817,9.1551973 C9.97401172,9.22979503 10.3133054,9.24099469 10.6848881,9.24099469 L10.7763516,9.24099469 C10.8714606,9.24099469 10.958302,9.27212708 11.0148727,9.29579303 C11.1976695,8.53601608 11.0991753,7.50024751 10.9527687,6.90439892 C10.8394321,6.88013299 10.7387246,6.83780094 10.6381473,6.80253534 C10.4620557,6.74027057 10.2972912,6.67980573 10.0716596,6.67980573 C10.0327957,6.67980573 9.99236952,6.67793912 9.9521386,6.68260565 C9.23755164,6.78080267 8.75159085,7.80737152 8.64085819,8.77187559 C8.53813265,9.66171526 8.72548632,10.7304162 9.55672991,11.0590062 C9.72793914,11.1265375 9.94074636,11.1601365 10.1883813,11.1601365 C10.6826096,11.1601365 11.2560629,11.0182741 11.629924,10.8689453 L11.629924,10.8689453 Z M14.4660732,10.6523519 C14.4211552,10.4996232 14.2916741,10.4152924 14.0996985,10.3539609 C13.9364963,10.6131531 13.682677,10.7566154 13.3825076,10.7566154 C13.0636548,10.7566154 12.7469502,10.5907537 12.5567322,10.3225619 C12.3750421,10.0667696 12.3305147,9.74757932 12.4911129,9.39065682 C12.748773,9.44452185 13.0007696,9.49365369 13.2356452,9.49365369 C13.4306805,9.49365369 13.6061211,9.46192132 13.75396,9.44452185 C13.7082608,8.86020625 13.774466,8.45001869 13.8448376,8.01609852 C13.9032961,7.65350952 13.9639028,7.27938754 13.9766622,6.82666795 C13.6512995,6.57467559 13.3051054,6.44601283 12.9189407,6.41101389 C11.9659627,7.15705792 11.523618,8.30048989 11.5652811,9.89750811 C11.6956084,10.60382 12.6045146,11.0406068 13.3725475,11.0406068 C13.8406713,11.0406734 14.2336062,10.8847448 14.4660732,10.6523519 L14.4660732,10.6523519 Z M17.7674168,8.46255164 C17.6489374,8.36535459 17.5486856,8.25129139 17.4481083,8.13522824 C17.2582158,7.91730152 17.0783484,7.71164109 16.7863814,7.63137686 C16.7259048,7.63264349 16.7137965,7.67770879 16.7070913,7.8157046 C16.7009721,7.92663457 16.6919234,8.09742939 16.5266381,8.09742939 L16.4130411,8.09869602 L16.4178584,8.05823058 C16.458545,7.5630456 16.4230012,6.99279624 16.3841373,6.36074875 C16.3306263,5.46450928 16.2743812,4.62633471 16.4299667,3.86829104 C16.2373401,3.63169822 15.9435502,3.50643535 15.3748492,3.50643535 L15.3538874,3.50643535 C15.3067561,3.50643535 15.2639212,3.35710655 15.2511619,3.33097401 C14.9586089,4.25314603 15.1007842,5.2638487 15.2384677,6.36834852 C15.3174322,6.9985294 15.3921654,7.58637823 15.3010274,8.15669426 C15.1886022,8.15669426 15.0744193,8.14222803 14.9637517,8.13336163 C14.8656482,8.12482856 14.7687164,8.11422888 14.6818098,8.11422888 C14.5186728,8.11422888 14.4211552,8.14336133 14.3625665,8.21142593 C14.2962961,8.28749029 14.2765713,8.41788633 14.2801517,8.57528156 C14.5050021,8.73334343 14.893901,8.74394311 15.269715,8.75387614 L15.5064134,8.80927446 C15.5166989,9.14593091 15.5426082,9.46698783 15.5677362,9.78897807 C15.6060142,10.2603638 15.6437062,10.7476156 15.634267,11.2790662 C15.7338678,11.2647333 15.8235085,11.2597334 15.9104151,11.2541336 C16.07876,11.2432673 16.237926,11.2330009 16.4184443,11.2112016 C16.4126505,10.835013 16.3989798,10.4765572 16.385895,10.1315677 C16.3679929,9.64964896 16.3510022,9.19199618 16.3916888,8.69761118 C16.5582109,8.64874599 16.7602118,8.63754633 16.9549867,8.62694666 C17.2812607,8.60828056 17.6191222,8.58928113 17.7674168,8.46255164 L17.7674168,8.46255164 Z M21.2388629,7.86376981 C21.0048987,7.66790909 20.7150799,7.32958602 20.3845093,7.32958602 L20.3097762,7.32958602 C20.2742324,7.32958602 20.2441568,7.42231654 20.227752,7.40531706 L20.2195496,7.758773 C20.197351,8.72781026 20.1657781,10.0699695 19.2609732,10.3917598 C19.1747176,9.81024409 19.1515425,9.17493003 19.1296694,8.60648061 C19.1181469,8.30362313 19.1072104,8.02889814 19.1172355,7.83677063 C19.0290921,7.79350528 18.9479793,7.74697336 18.8684288,7.69717487 C18.643318,7.5589124 18.4318778,7.42991631 18.0900453,7.38405103 C17.9535987,9.05013382 18.1173867,10.1534337 18.5752249,10.6624182 C18.7638805,10.8724119 19.0066982,10.9798086 19.2968425,10.9798086 C19.5009916,10.9798086 19.7322217,10.9284768 19.9622149,10.8450794 L20.0497074,10.7072835 C20.2131699,10.4508913 20.3201268,10.2809631 20.5643767,10.0909022 C20.626676,9.9767057 20.6932067,9.83610997 20.7606488,9.72657996 C21.0595815,9.23546153 21.3421743,8.71027746 21.2388629,7.86376981 L21.2388629,7.86376981 Z M25.6077579,6.29535073 C25.1092331,5.9965598 24.6750256,5.85263083 24.2791613,5.85263083 C23.7863651,5.85263083 23.3591883,6.07942395 22.9727632,6.54734309 C22.2454169,7.42671641 22.0938024,9.25759419 21.9893192,10.1794329 C21.9455729,10.1987656 21.8975953,10.2136985 21.8489667,10.2280314 C21.7228708,10.2662969 21.6040659,10.3026958 21.5584969,10.3630273 C21.9406906,10.8166802 22.0160747,11.5857902 22.0889851,12.328701 C22.1460765,12.9021503 22.2032331,13.494799 22.3672164,13.8977201 C22.4583544,13.9179861 22.5859475,13.9282525 22.757938,13.9282525 C22.8384649,13.9282525 22.9232232,13.9257192 23.0073957,13.9257192 C23.1495709,13.9257192 23.289663,13.932319 23.4005259,13.9667846 C23.1359002,13.2832054 23.0325888,12.3567002 23.114613,11.0029412 C24.1937519,10.7416158 25.1526538,9.95757295 25.6166113,8.95666999 C25.8964049,8.35188834 26.1194326,7.39551735 25.6077579,6.29535073 L25.6077579,6.29535073 Z" id="Meetup"></path>
                    </g>
                </g>
            </g>
        </g>
    </g>
</svg>