<?xml version="1.0" encoding="UTF-8" standalone="no"?>
<svg width="27px" height="22px" viewBox="0 0 27 22" version="1.1" xmlns="http://www.w3.org/2000/svg" xmlns:xlink="http://www.w3.org/1999/xlink" xmlns:sketch="http://www.bohemiancoding.com/sketch/ns">
    <!-- Generator: Sketch 3.5.1 (25234) - http://www.bohemiancoding.com/sketch -->
    <title>twitter1</title>
    <desc>Created with Sketch.</desc>
    <defs></defs>
    <g id="Page-1" stroke="none" stroke-width="1" fill="none" fill-rule="evenodd" sketch:type="MSPage">
        <g id="Business-Card---Vertical-v1" sketch:type="MSArtboardGroup" transform="translate(-21.000000, -238.000000)" fill="#222222">
            <g id="contactInfo" sketch:type="MSLayerGroup" transform="translate(21.000000, 204.000000)">
                <g id="contactIcons" sketch:type="MSShapeGroup">
                    <g id="twitter1" transform="translate(0.000000, 34.000000)">
                        <path d="M26.2478683,2.54149703 C25.281801,2.96956888 24.2452246,3.25988232 23.1561096,3.38949189 C24.2681701,2.72355945 25.1194244,1.66729719 25.5228782,0.412546153 C24.4797399,1.02924239 23.3283077,1.47704304 22.1014343,1.71979293 C21.1189834,0.671722409 19.7215417,0.0189139051 18.1715451,0.0189139051 C15.1979018,0.0189139051 12.7868292,2.42998648 12.7868292,5.40200002 C12.7868292,5.8235099 12.8343927,6.23519828 12.9262603,6.62887342 C8.4518565,6.40413677 4.48426817,4.26043219 1.82881594,1.00299452 C1.36463182,1.79686388 1.10056626,2.72188679 1.10056626,3.70931273 C1.10056626,5.57750047 2.05187993,7.22588376 3.49525536,8.19027847 C2.61282089,8.16077107 1.78288217,7.91802117 1.05630515,7.51452453 L1.05630515,7.58177397 C1.05630515,10.1896627 2.91299872,12.3661771 5.37489437,12.8615413 C4.92383419,12.9829162 4.4481988,13.0501657 3.95613705,13.0501657 C3.60843857,13.0501657 3.27219136,13.015726 2.94250613,12.9501064 C3.62808158,15.0905514 5.6160145,16.6470672 7.97133179,16.6897414 C6.12939192,18.1331168 3.80688446,18.9909332 1.28430134,18.9909332 C0.849667516,18.9909332 0.421552774,18.9646853 4.28886706e-05,18.9171218 C2.38323782,20.4474325 5.21256074,21.3396885 8.25345349,21.3396885 C18.1585069,21.3396885 23.5727731,13.1354712 23.5727731,6.02036891 L23.554717,5.3232993 C24.612609,4.56875886 25.5278104,3.62074762 26.2478683,2.54149703 L26.2478683,2.54149703 Z" id="Shape"></path>
                    </g>
                </g>
            </g>
        </g>
    </g>
</svg>